# xmcd
#
# Track frame offsets:
#	150
#	81150
#	101625
#	104325
#	113475
#	115950
#	130725
#	142275
#	155025
#
# Disc length: 2138 seconds
#
# Revision: 5
# Processed by: cddbd v1.5.2PL0 Copyright (c) Steve Scherf et al.
# Submitted via: VUPlayer 2.49
#
DISCID=7a085809
DTITLE=Yasuhito Saitou - Psychic Detective 5: Nightmare
DYEAR=1991
DGENRE=Game
TTITLE0=Data Track
TTITLE1=Autumn
TTITLE2=The Theme of Data West '91
TTITLE3=Gasp
TTITLE4=Masquerade
TTITLE5=Rosemary 2
TTITLE6=Japanesque 2
TTITLE7=Nightmare
TTITLE8=Late Autumn
EXTD=
EXTT0=
EXTT1=
EXTT2=
EXTT3=
EXTT4=
EXTT5=
EXTT6=
EXTT7=
EXTT8=
PLAYORDER=
